HIERARCHY
ROOT Hips
{
    OFFSET 0.0 0.0 0.0
    CHANNELS 6 Xposition Yposition Zposition Zrotation Xrotation Yrotation
    JOINT Spine
    {
        OFFSET 0.0 5.0 0.0
        CHANNELS 3 Zrotation Xrotation Yrotation
        JOINT Chest
        {
            OFFSET 0.0 5.0 0.0
            CHANNELS 3 Zrotation Xrotation Yrotation
            JOINT Neck
            {
                OFFSET 0.0 5.0 0.0
                CHANNELS 3 Zrotation Xrotation Yrotation
                JOINT Head
                {
                    OFFSET 0.0 3.0 0.0
                    CHANNELS 3 Zrotation Xrotation Yrotation
                    End Site
                    {
                        OFFSET 0.0 3.0 0.0
                    }
                }
            }
            JOINT LeftShoulder
            {
                OFFSET -3.0 4.0 0.0
                CHANNELS 3 Zrotation Xrotation Yrotation
                JOINT LeftUpperArm
                {
                    OFFSET -5.0 0.0 0.0
                    CHANNELS 3 Zrotation Xrotation Yrotation
                    JOINT LeftLowerArm
                    {
                        OFFSET -5.0 0.0 0.0
                        CHANNELS 3 Zrotation Xrotation Yrotation
                        JOINT LeftHand
                        {
                            OFFSET -3.0 0.0 0.0
                            CHANNELS 3 Zrotation Xrotation Yrotation
                            End Site
                            {
                                OFFSET -2.0 0.0 0.0
                            }
                        }
                    }
                }
            }
            JOINT RightShoulder
            {
                OFFSET 3.0 4.0 0.0
                CHANNELS 3 Zrotation Xrotation Yrotation
                JOINT RightUpperArm
                {
                    OFFSET 5.0 0.0 0.0
                    CHANNELS 3 Zrotation Xrotation Yrotation
                    JOINT RightLowerArm
                    {
                        OFFSET 5.0 0.0 0.0
                        CHANNELS 3 Zrotation Xrotation Yrotation
                        JOINT RightHand
                        {
                            OFFSET 3.0 0.0 0.0
                            CHANNELS 3 Zrotation Xrotation Yrotation
                            End Site
                            {
                                OFFSET 2.0 0.0 0.0
                            }
                        }
                    }
                }
            }
        }
    }
    JOINT LeftUpLeg
    {
        OFFSET -3.0 0.0 0.0
        CHANNELS 3 Zrotation Xrotation Yrotation
        JOINT LeftLeg
        {
            OFFSET 0.0 -8.0 0.0
            CHANNELS 3 Zrotation Xrotation Yrotation
            JOINT LeftFoot
            {
                OFFSET 0.0 -8.0 0.0
                CHANNELS 3 Zrotation Xrotation Yrotation
                End Site
                {
                    OFFSET 0.0 -2.0 2.0
                }
            }
        }
    }
    JOINT RightUpLeg
    {
        OFFSET 3.0 0.0 0.0
        CHANNELS 3 Zrotation Xrotation Yrotation
        JOINT RightLeg
        {
            OFFSET 0.0 -8.0 0.0
            CHANNELS 3 Zrotation Xrotation Yrotation
            JOINT RightFoot
            {
                OFFSET 0.0 -8.0 0.0
                CHANNELS 3 Zrotation Xrotation Yrotation
                End Site
                {
                    OFFSET 0.0 -2.0 2.0
                }
            }
        }
    }
}

MOTION
Frames: 15
Frame Time: 0.03333333333333333
3.012478 6.801836 -0.005241 0.000000 0.000000 -146.721250 1.651941 -102.428112 0.000000 0.000000 0.000000 0.000000 0.000000 0.000000 0.000000 0.000000 -24.190764 4.088972 0.000000 0.000000 0.000000 0.000000 -43.059492 -14.533114 0.000000 4.850303 5.910081 0.000000 0.000000 0.000000 0.000000 0.000000 0.000000 0.000000 -65.331980 23.399010 0.000000 -43.657930 8.350519 0.000000 0.000000 0.000000 0.000000 -47.902216 2.950719 0.000000 -48.352360 0.359349 0.000000 0.000000 0.000000 0.000000 -63.379141 -12.407228 0.000000 -65.875972 5.610588 0.000000 0.000000 0.000000
1.418881 6.805256 -0.017382 0.000000 0.000000 108.647695 0.100093 -93.575748 0.000000 0.000000 0.000000 0.000000 0.000000 0.000000 0.000000 0.000000 -14.414203 -11.593070 0.000000 0.000000 0.000000 0.000000 -51.967177 -20.698567 0.000000 4.560831 2.609822 0.000000 0.000000 0.000000 0.000000 0.000000 0.000000 0.000000 -79.508829 87.581881 0.000000 -83.380513 22.933862 0.000000 0.000000 0.000000 0.000000 -74.497705 -28.325596 0.000000 -75.887857 44.996732 0.000000 0.000000 0.000000 0.000000 -69.085903 -28.740583 0.000000 -77.182844 1.711374 0.000000 0.000000 0.000000
0.095332 6.850573 -0.020966 0.000000 0.000000 107.257840 0.110601 -92.448864 0.000000 0.000000 0.000000 0.000000 0.000000 0.000000 0.000000 0.000000 -21.729818 -13.798002 0.000000 0.000000 0.000000 0.000000 -70.238193 -40.816908 0.000000 5.729068 -4.040202 0.000000 0.000000 0.000000 0.000000 0.000000 0.000000 0.000000 -37.673561 -1.623561 0.000000 0.699595 -13.294423 0.000000 0.000000 0.000000 0.000000 -62.758723 -18.910566 0.000000 -74.976451 8.211405 0.000000 0.000000 0.000000 0.000000 -65.633503 -21.273650 0.000000 -76.606352 -7.802696 0.000000 0.000000 0.000000
-0.431307 7.593559 -0.019023 0.000000 0.000000 107.785169 -0.256110 -96.695401 0.000000 0.000000 0.000000 0.000000 0.000000 0.000000 0.000000 0.000000 -26.270838 -16.343526 0.000000 0.000000 0.000000 0.000000 -64.357532 -25.546713 0.000000 5.060130 -6.080368 0.000000 0.000000 0.000000 0.000000 0.000000 0.000000 0.000000 -36.087335 -1.698560 0.000000 4.070672 -11.668967 0.000000 0.000000 0.000000 0.000000 -60.079521 -16.330593 0.000000 -76.630741 -5.628325 0.000000 0.000000 0.000000 0.000000 -61.614962 -16.296582 0.000000 -75.986512 -6.787276 0.000000 0.000000 0.000000
-1.726136 7.594202 -0.006215 0.000000 0.000000 103.883551 -0.503998 -98.226745 0.000000 0.000000 0.000000 0.000000 0.000000 0.000000 0.000000 0.000000 -39.258340 -29.631836 0.000000 0.000000 0.000000 0.000000 -72.338504 -35.069559 0.000000 11.069182 -8.230234 0.000000 0.000000 0.000000 0.000000 0.000000 0.000000 0.000000 -45.924563 -8.105601 0.000000 3.754683 -20.700191 0.000000 0.000000 0.000000 0.000000 -59.476067 -11.225234 0.000000 -55.234696 -14.148410 0.000000 0.000000 0.000000 0.000000 -65.994757 -10.937016 0.000000 -78.359979 -5.201018 0.000000 0.000000 0.000000
-2.322859 7.562193 0.001030 0.000000 0.000000 101.746782 -0.893053 -99.621136 0.000000 0.000000 0.000000 0.000000 0.000000 0.000000 0.000000 0.000000 -48.736668 -39.831458 0.000000 0.000000 0.000000 0.000000 -71.893039 -29.119357 0.000000 13.318289 -8.834758 0.000000 0.000000 0.000000 0.000000 0.000000 0.000000 0.000000 -53.363560 -13.023830 0.000000 9.514026 -20.224899 0.000000 0.000000 0.000000 0.000000 -55.294657 -8.341761 0.000000 -50.586969 -8.304676 0.000000 0.000000 0.000000 0.000000 -69.816178 -10.980033 0.000000 -75.525513 -4.334082 0.000000 0.000000 0.000000
-3.870335 7.351963 -0.002164 0.000000 0.000000 100.061615 -0.376572 -100.418408 0.000000 0.000000 0.000000 0.000000 0.000000 0.000000 0.000000 0.000000 -61.996538 -75.702447 0.000000 0.000000 0.000000 0.000000 -80.913957 -43.034514 0.000000 12.896323 -16.831237 0.000000 0.000000 0.000000 0.000000 0.000000 0.000000 0.000000 -53.707877 0.069959 0.000000 3.845906 -32.711866 0.000000 0.000000 0.000000 0.000000 -56.024215 -6.648179 0.000000 -54.793950 -5.375366 0.000000 0.000000 0.000000 0.000000 -69.951872 -7.828091 0.000000 -71.936298 6.788513 0.000000 0.000000 0.000000
-4.307823 7.622755 -0.001547 0.000000 0.000000 100.570926 -0.772314 -97.477170 0.000000 0.000000 0.000000 0.000000 0.000000 0.000000 0.000000 0.000000 -57.765958 -57.197886 0.000000 0.000000 0.000000 0.000000 -80.859043 -24.715239 0.000000 10.942751 -16.621356 0.000000 0.000000 0.000000 0.000000 0.000000 0.000000 0.000000 -51.107624 -1.580788 0.000000 -2.921235 -31.759436 0.000000 0.000000 0.000000 0.000000 -61.832577 -12.771116 0.000000 -62.764466 -1.372976 0.000000 0.000000 0.000000 0.000000 -71.223521 -11.679662 0.000000 -72.681857 16.158021 0.000000 0.000000 0.000000
-5.704495 7.804199 0.000289 0.000000 0.000000 97.447560 0.309119 -99.376884 0.000000 0.000000 0.000000 0.000000 0.000000 0.000000 0.000000 0.000000 -50.735128 -138.588010 0.000000 0.000000 0.000000 0.000000 -84.980262 -43.098110 0.000000 14.202417 -23.098181 0.000000 0.000000 0.000000 0.000000 0.000000 0.000000 0.000000 -51.877796 -3.736154 0.000000 21.682990 -52.961014 0.000000 0.000000 0.000000 0.000000 -64.570857 -16.631970 0.000000 -63.438514 0.713848 0.000000 0.000000 0.000000 0.000000 -63.752423 -7.266911 0.000000 -59.419284 10.542379 0.000000 0.000000 0.000000
-6.320764 8.873929 0.006393 0.000000 0.000000 92.989319 0.135580 -99.523083 0.000000 0.000000 0.000000 0.000000 0.000000 0.000000 0.000000 0.000000 -42.070802 -156.059278 0.000000 0.000000 0.000000 0.000000 -76.448863 -18.325944 0.000000 11.977064 -20.437319 0.000000 0.000000 0.000000 0.000000 0.000000 0.000000 0.000000 -53.095066 -7.611973 0.000000 34.972378 -111.016220 0.000000 0.000000 0.000000 0.000000 -72.865021 -28.583709 0.000000 -67.610156 3.633010 0.000000 0.000000 0.000000 0.000000 -67.579144 -15.868092 0.000000 -62.677143 12.441978 0.000000 0.000000 0.000000
-6.570856 9.078911 0.003533 0.000000 0.000000 88.776293 -0.653055 -100.403508 0.000000 0.000000 0.000000 0.000000 0.000000 0.000000 0.000000 0.000000 -27.757384 -168.383375 0.000000 0.000000 0.000000 0.000000 -84.718808 -68.897343 0.000000 20.876163 -34.496986 0.000000 0.000000 0.000000 0.000000 0.000000 0.000000 0.000000 -70.959261 -7.319393 0.000000 8.040427 -162.250380 0.000000 0.000000 0.000000 0.000000 -72.730737 -27.165983 0.000000 -66.664396 1.039851 0.000000 0.000000 0.000000 0.000000 -68.537229 -12.502335 0.000000 -65.020748 3.042311 0.000000 0.000000 0.000000
-6.690592 9.008552 0.003160 0.000000 0.000000 87.586698 -0.585954 -97.709891 0.000000 0.000000 0.000000 0.000000 0.000000 0.000000 0.000000 0.000000 -46.444061 -156.194437 0.000000 0.000000 0.000000 0.000000 -69.531404 -166.469232 0.000000 27.138704 -61.558682 0.000000 0.000000 0.000000 0.000000 0.000000 0.000000 0.000000 -68.177074 6.716874 0.000000 -45.504709 -156.208899 0.000000 0.000000 0.000000 0.000000 -75.396926 -33.113444 0.000000 -71.538687 -0.475902 0.000000 0.000000 0.000000 0.000000 -72.984359 -15.295404 0.000000 -67.757261 -0.854474 0.000000 0.000000 0.000000
-6.653658 8.907366 0.003502 0.000000 0.000000 87.103793 -0.416688 -94.881534 0.000000 0.000000 0.000000 0.000000 0.000000 0.000000 0.000000 0.000000 -32.841862 -165.507958 0.000000 0.000000 0.000000 0.000000 -74.488203 -167.391859 0.000000 24.730355 -56.625317 0.000000 0.000000 0.000000 0.000000 0.000000 0.000000 0.000000 -67.218520 7.509929 0.000000 -43.921766 -165.686784 0.000000 0.000000 0.000000 0.000000 -77.442726 -43.071482 0.000000 -75.529522 -1.446969 0.000000 0.000000 0.000000 0.000000 -76.245217 -18.943406 0.000000 -70.752608 4.980801 0.000000 0.000000 0.000000
-6.755173 10.021293 0.008152 0.000000 0.000000 82.314169 -0.957367 -86.009193 0.000000 0.000000 0.000000 0.000000 0.000000 0.000000 0.000000 0.000000 -21.289631 -173.291158 0.000000 0.000000 0.000000 0.000000 -68.846588 162.046896 0.000000 23.697017 -119.477869 0.000000 0.000000 0.000000 0.000000 0.000000 0.000000 0.000000 -59.861893 5.286162 0.000000 -52.389234 -171.696966 0.000000 0.000000 0.000000 0.000000 -80.051465 -126.653296 0.000000 -68.924082 -4.073375 0.000000 0.000000 0.000000 0.000000 -83.567606 -134.629314 0.000000 -68.497261 4.705277 0.000000 0.000000 0.000000
-6.889625 9.834053 -0.001499 0.000000 0.000000 81.132041 -0.665189 -97.315434 0.000000 0.000000 0.000000 0.000000 0.000000 0.000000 0.000000 0.000000 -16.964024 -174.677047 0.000000 0.000000 0.000000 0.000000 -34.140457 169.909947 0.000000 7.064595 -163.168733 0.000000 0.000000 0.000000 0.000000 0.000000 0.000000 0.000000 -57.451689 -5.894991 0.000000 -43.424083 -164.214857 0.000000 0.000000 0.000000 0.000000 -83.290175 -57.953610 0.000000 -64.500356 -3.378940 0.000000 0.000000 0.000000 0.000000 -82.109019 -7.086342 0.000000 -53.064231 1.874933 0.000000 0.000000 0.000000
